<?xml version="1.0" encoding="UTF-8" standalone="no"?>
<svg
   xmlns:dc="http://purl.org/dc/elements/1.1/"
   xmlns:cc="http://creativecommons.org/ns#"
   xmlns:rdf="http://www.w3.org/1999/02/22-rdf-syntax-ns#"
   xmlns:svg="http://www.w3.org/2000/svg"
   xmlns="http://www.w3.org/2000/svg"
   xmlns:sodipodi="http://sodipodi.sourceforge.net/DTD/sodipodi-0.dtd"
   xmlns:inkscape="http://www.inkscape.org/namespaces/inkscape"
   width="39.0141mm"
   height="39.0141mm"
   viewBox="0 0 277 277"
   id="svg2869"
   version="1.1"
   inkscape:version="0.47 r22583"
   sodipodi:docname="elanSmooth.svg"
   inkscape:export-filename="/Users/martin/Desktop/favicon.png"
   inkscape:export-xdpi="20.833494"
   inkscape:export-ydpi="20.833494">
  <metadata
     id="metadata2876">
    <rdf:RDF>
      <cc:Work
         rdf:about="">
        <dc:format>image/svg+xml</dc:format>
        <dc:type
           rdf:resource="http://purl.org/dc/dcmitype/StillImage" />
        <dc:title></dc:title>
      </cc:Work>
    </rdf:RDF>
  </metadata>
  <defs
     id="defs2874">
    <inkscape:perspective
       sodipodi:type="inkscape:persp3d"
       inkscape:vp_x="0 : 69.119469 : 1"
       inkscape:vp_y="0 : 1000 : 0"
       inkscape:vp_z="138.23894 : 69.119469 : 1"
       inkscape:persp3d-origin="69.119469 : 46.079646 : 1"
       id="perspective2878" />
    <inkscape:perspective
       id="perspective2938"
       inkscape:persp3d-origin="0.5 : 0.33333333 : 1"
       inkscape:vp_z="1 : 0.5 : 1"
       inkscape:vp_y="0 : 1000 : 0"
       inkscape:vp_x="0 : 0.5 : 1"
       sodipodi:type="inkscape:persp3d" />
  </defs>
  <sodipodi:namedview
     pagecolor="#ffffff"
     bordercolor="#666666"
     borderopacity="1"
     objecttolerance="10"
     gridtolerance="10"
     guidetolerance="10"
     inkscape:pageopacity="0"
     inkscape:pageshadow="2"
     inkscape:window-width="1920"
     inkscape:window-height="1152"
     id="namedview2872"
     showgrid="false"
     inkscape:zoom="1"
     inkscape:cx="31.394922"
     inkscape:cy="80.469305"
     inkscape:window-x="0"
     inkscape:window-y="0"
     inkscape:window-maximized="0"
     inkscape:current-layer="svg2869" />
  <path
     id="Sélection"
     fill="none"
     stroke="black"
     stroke-width="1"
     d="M 86.28,35.00            C 88.07,25.89 104.77,20.21 113.00,20.01              116.19,19.94 120.17,19.79 122.86,21.74              127.12,24.83 130.43,36.84 128.26,41.89              123.90,52.05 112.27,39.25 108.00,36.35              105.56,34.70 102.73,34.21 101.07,37.23              99.12,40.76 102.64,43.82 104.76,46.17              109.86,51.81 117.28,62.90 125.00,63.87              130.88,64.61 134.66,62.60 140.00,61.33              158.87,56.87 193.49,45.80 201.95,72.00              203.04,75.39 204.09,80.45 203.82,84.00              203.45,88.87 201.45,96.30 196.90,98.83              191.87,101.61 184.22,100.05 185.36,93.01              186.08,88.56 189.24,87.18 189.73,82.99              190.70,74.75 181.93,69.30 175.00,68.00              177.92,73.70 180.83,81.54 178.26,87.98              175.63,94.59 166.85,93.58 164.71,91.40              160.34,87.38 165.06,81.66 164.71,79.00              164.64,76.13 160.94,72.96 159.00,71.00              159.00,73.84 159.37,79.50 157.98,81.85              155.65,85.78 149.25,86.95 147.00,78.00              144.44,80.12 138.45,88.20 138.48,91.58              138.50,94.23 141.92,96.41 143.84,100.00              143.84,100.00 146.26,106.00 146.26,106.00              146.26,106.00 162.18,130.00 162.18,130.00              167.54,136.04 172.32,138.89 180.00,141.09              180.00,141.09 195.90,145.57 195.90,145.57              202.30,149.03 201.87,158.43 206.27,161.14              209.04,162.79 211.91,160.82 217.00,161.14              238.22,162.69 248.77,177.59 249.00,198.00              249.12,209.16 248.41,221.77 234.00,220.96              231.22,220.80 229.33,220.38 227.11,218.57              222.97,215.21 218.43,201.05 215.00,195.00              213.46,203.96 202.92,201.54 201.83,208.09              201.48,210.25 206.14,218.93 207.10,222.00              210.17,231.81 211.14,243.86 209.20,254.00              208.66,256.77 207.76,261.51 206.00,263.69              201.16,269.67 197.04,262.72 196.30,258.00              194.85,248.70 196.79,241.21 201.00,233.00              191.55,227.88 190.84,220.81 185.05,213.18              182.34,209.62 176.11,205.74 172.00,204.00              171.35,210.07 169.06,211.91 169.63,214.28              170.25,216.90 176.01,222.64 177.69,226.00              179.25,229.12 178.83,231.67 178.86,235.00              178.94,243.19 177.13,246.01 172.99,253.00              170.09,257.89 165.65,265.35 159.02,264.80              157.32,264.66 155.91,264.07 154.87,262.69              150.80,257.29 160.80,246.15 164.07,242.00              166.07,239.47 169.76,235.54 165.00,234.00              160.91,226.96 149.25,214.00 147.72,207.00              145.95,198.91 153.40,190.28 150.19,185.81              146.74,181.00 139.22,181.11 134.00,179.75              126.85,177.89 122.11,172.84 118.00,171.87              115.16,171.19 106.00,172.92 101.00,171.35              94.85,169.42 92.11,163.83 88.83,162.02              86.36,160.66 81.84,161.00 79.00,161.00              82.70,169.88 85.75,170.08 86.00,180.87              88.51,180.40 91.29,179.64 93.79,180.87              97.78,182.49 99.16,189.12 96.26,192.35              93.49,195.44 84.83,195.47 81.00,194.77              72.41,193.21 69.70,183.53 70.15,176.00              70.38,172.26 69.91,166.15 64.57,166.30              64.57,166.30 56.00,170.00 56.00,170.00              58.11,175.97 62.67,177.80 61.53,182.98              60.35,188.32 54.27,188.83 50.00,187.08              43.76,184.53 42.09,181.43 42.00,175.00              41.96,171.71 41.81,168.11 42.99,165.00              45.66,158.01 52.91,153.19 60.00,151.53              60.00,151.53 66.00,150.62 66.00,150.62              66.00,150.62 72.00,148.63 72.00,148.63              75.36,147.72 81.33,148.00 85.00,148.00              85.00,148.00 84.00,134.00 84.00,134.00              77.84,133.28 77.21,131.99 77.00,126.00              85.97,128.91 92.71,129.11 102.00,129.00              105.81,128.95 115.12,128.26 115.26,122.95              115.37,118.31 108.60,115.70 105.00,114.52              98.79,112.49 86.37,111.11 80.00,112.38              80.00,112.38 71.00,115.00 71.00,115.00              71.00,115.00 70.00,114.00 70.00,114.00              60.34,113.99 55.56,114.29 55.00,103.00              50.21,102.89 43.93,102.32 40.43,98.61              35.79,93.68 38.42,83.28 44.09,80.17              46.76,78.72 49.27,79.26 52.00,78.73              56.82,77.80 60.70,74.38 70.00,76.55              73.53,77.37 84.34,81.10 87.00,80.66              92.51,79.74 98.10,72.68 94.82,67.23              93.34,64.76 90.42,64.17 88.00,63.00              88.00,63.00 93.00,61.00 93.00,61.00              90.63,55.04 85.09,41.06 86.28,35.00 Z            M 158.00,70.00            C 158.00,70.00 159.00,71.00 159.00,71.00              159.00,71.00 158.00,70.00 158.00,70.00 Z            M 97.11,89.00            C 96.58,95.10 99.20,99.68 106.00,98.62              116.02,97.06 118.90,79.47 107.98,77.55              101.62,78.60 97.67,82.40 97.11,89.00 Z            M 187.00,89.00 187.00,89.00 187.00,89.00 187.00,89.00            M 152.00,188.00 152.00,188.00 152.00,188.00 152.00,188.00" />
  <path
     sodipodi:type="arc"
     style="fill:#000000"
     id="path2886"
     sodipodi:cx="53.282829"
     sodipodi:cy="43.962845"
     sodipodi:rx="4.2929292"
     sodipodi:ry="5.0505052"
     d="m 57.575758,43.962845 a 4.2929292,5.0505052 0 1 1 -8.585858,0 4.2929292,5.0505052 0 1 1 8.585858,0 z"
     transform="matrix(1.9077169,0.88024449,-0.82898462,2.0256797,40.481833,-47.897713)" />
  <path
     transform="matrix(0.51859029,1.8202355,-1.6482351,0.69469755,131.50504,-55.454647)"
     d="m 57.575758,43.962845 a 4.2929292,5.0505052 0 1 1 -8.585858,0 4.2929292,5.0505052 0 1 1 8.585858,0 z"
     sodipodi:ry="5.0505052"
     sodipodi:rx="4.2929292"
     sodipodi:cy="43.962845"
     sodipodi:cx="53.282829"
     id="path2957"
     style="fill:#000000"
     sodipodi:type="arc" />
  <path
     transform="matrix(13.660644,-2.2120657,3.2020812,19.774499,-425.54114,-1056.2117)"
     d="m 24.537988,62.212242 a 3.2854209,0.56468171 0 1 1 -6.570842,0 3.2854209,0.56468171 0 1 1 6.570842,0 z"
     sodipodi:ry="0.56468171"
     sodipodi:rx="3.2854209"
     sodipodi:cy="62.212242"
     sodipodi:cx="21.252567"
     id="path2961"
     style="fill:#000000"
     sodipodi:type="arc" />
  <path
     style="fill:#784421;stroke:#000000;stroke-opacity:1"
     d="m 99.744856,131.73139 c -0.881012,-0.88101 -1.361719,-2.22275 -1.584445,-4.42244 -0.312966,-3.09095 0.305893,-6.21724 1.924649,-9.72276 0.35948,-0.77848 0.63398,-1.42963 0.61,-1.447 -0.024,-0.0174 -0.49815,-0.34233 -1.053706,-0.72215 -2.092471,-1.43056 -2.861013,-2.34002 -4.724269,-5.5905 -1.555468,-2.71354 -2.634505,-4.19054 -3.727108,-5.10171 -1.132486,-0.94444 -3.419566,-2.40484 -4.546906,-2.9034 -1.042237,-0.46093 -1.219934,-0.39208 -1.224729,0.47455 -0.0013,0.25634 -0.275777,1.31117 -0.609688,2.34406 -0.772788,2.39047 -0.748093,2.48161 1.462756,5.3981 2.355453,3.10725 2.562175,3.57709 2.649325,6.02138 0.127678,3.5811 -0.296542,5.4163 -1.925206,8.32852 -3.021714,5.40315 -4.980456,7.37416 -7.332485,7.37841 -1.088739,0.002 -1.65825,-0.28989 -2.177146,-1.11572 -0.951,-1.51355 0.216532,-4.04635 4.178195,-9.06403 2.386756,-3.02297 2.661797,-3.96318 1.407366,-4.81102 -0.30442,-0.20574 -0.766384,-0.70978 -1.026588,-1.12008 -0.260204,-0.4103 -1.501692,-2.15155 -2.758864,-3.86944 -2.937313,-4.01376 -4.069624,-5.75967 -4.758207,-7.33669 -0.876708,-2.00786 -0.775082,-3.1809 0.698977,-8.067931 0.712991,-2.363823 0.549789,-3.475249 -0.667212,-4.543791 -1.058835,-0.929668 -2.119662,-1.33438 -5.114526,-1.951227 -3.38625,-0.69746 -4.226148,-1.015047 -6.955121,-2.629919 -3.291439,-1.947711 -2.946331,-1.858526 -7.080394,-1.829758 -1.968789,0.0137 -3.882648,-0.03076 -4.253018,-0.09879 -1.336133,-0.245438 -2.463197,-0.966214 -4.432052,-2.834374 -1.05948,-1.005295 -2.200238,-1.945179 -2.535017,-2.088632 -0.623615,-0.26722 -5.238318,-0.537624 -5.238318,-0.306946 0,0.164963 1.155764,2.48547 2.073407,4.162923 0.968236,1.769939 1.242473,2.654234 1.452406,4.683387 0.08886,0.858908 0.184225,1.584308 0.211919,1.612002 0.02769,0.02769 0.618486,-0.03131 1.312875,-0.131121 0.694387,-0.09981 1.538148,-0.129578 1.875024,-0.06615 1.495628,0.281602 2.526028,1.653395 2.526028,3.362953 0,2.358601 -1.50535,3.228052 -5.579606,3.222631 -2.741235,-0.0037 -3.633128,-0.252766 -4.862656,-1.358219 -0.970611,-0.872662 -1.528359,-1.76263 -2.052347,-3.274813 -0.301336,-0.869631 -0.400948,-1.645062 -0.49658,-3.865628 -0.0658,-1.527778 -0.207402,-3.096303 -0.31468,-3.485611 -0.355755,-1.29103 -1.452125,-2.238295 -2.590615,-2.238295 -0.426441,0 -4.59235,1.628217 -4.973335,1.943795 -0.106317,0.08806 0.939032,2.031481 1.798851,3.344257 1.000538,1.527628 1.103791,1.833133 0.996596,2.948728 -0.156284,1.626473 -1.252469,2.450173 -3.252539,2.444038 -2.218688,-0.0068 -4.740941,-1.60254 -5.383334,-3.405826 -0.373708,-1.049051 -0.525427,-4.488298 -0.265958,-6.028842 0.381598,-2.265648 1.759071,-4.302683 3.982353,-5.889185 1.855353,-1.323953 3.70763,-2.01383 6.518111,-2.42766 0.72009,-0.10603 1.962636,-0.413638 2.761213,-0.683574 1.75934,-0.594695 3.515779,-0.831589 6.165766,-0.831589 l 1.995907,0 -0.0895,-0.462963 c -0.04922,-0.25463 -0.181846,-1.952517 -0.294716,-3.773084 l -0.205215,-3.310122 c -0.11887,-1.28866 -0.165998,-0.61077 0.77303,-1.6681 1.723298,0.661293 1.066988,-0.38247 5.008502,-0.26814 5.661649,0.164224 8.361429,-0.430288 9.449747,-2.080908 0.612535,-0.929012 0.268404,-2.615331 -0.721242,-3.534254 -0.759911,-0.705603 -2.384598,-1.559008 -3.908872,-2.053229 -1.866064,-0.605039 -2.674494,-0.780195 -5.072159,-1.098951 -4.499259,-0.59815 -6.739949,-0.488562 -10.108907,0.494407 -1.594837,0.46533 -2.163547,0.569192 -2.335455,0.426522 -0.124984,-0.103727 -1.249625,-0.251173 -2.499202,-0.327656 -3.38948,-0.207462 -4.151939,-0.684389 -4.747101,-2.969371 -0.142356,-0.546542 -0.25883,-1.318705 -0.25883,-1.715919 l 0,-0.722205 -0.715488,-0.0012 c -1.178118,-0.002 -3.68167,-0.441767 -4.685075,-0.823044 -2.002066,-0.760759 -3.026147,-2.235025 -3.046382,-4.385577 -0.01638,-1.741049 0.576895,-3.368049 1.668891,-4.576758 0.877673,-0.971479 1.633659,-1.293926 3.526875,-1.504298 0.961072,-0.106794 2.404724,-0.426648 3.45218,-0.764862 3.250734,-1.049629 4.967971,-1.030306 8.879776,0.09993 2.818673,0.814396 5.686594,1.517566 6.190686,1.517862 0.742406,5.05e-4 2.239239,-0.707978 3.065416,-1.450781 1.69729,-1.52601 2.380071,-3.950758 1.56319,-5.551328 -0.426963,-0.836578 -0.746843,-1.120448 -1.941787,-1.723191 l -0.967463,-0.487998 1.025239,-0.383412 c 0.806013,-0.30143 1.000939,-0.441312 0.911604,-0.654186 -0.0625,-0.148926 -0.599456,-1.582814 -1.193241,-3.18642 -1.297678,-3.504586 -2.062442,-6.366383 -2.194934,-8.213583 -0.0883,-1.231138 -0.05483,-1.458999 0.341522,-2.324742 1.08165,-2.362635 4.539983,-4.541692 9.166007,-5.775396 1.406954,-0.375218 2.002481,-0.438617 4.245914,-0.452016 2.944562,-0.01759 3.475384,0.138194 4.518272,1.325979 1.407106,1.602604 2.613022,5.65538 2.319652,7.795751 -0.149712,1.092275 -0.729588,2.202089 -1.347438,2.578843 -1.368089,0.834235 -3.081538,0.09363 -6.921463,-2.991675 -2.063601,-1.658063 -2.532165,-1.906301 -3.598251,-1.906301 -1.457907,0 -2.326819,1.080141 -2.171259,2.699086 0.09175,0.954835 0.346264,1.362495 2.178598,3.489461 5.191195,6.025921 6.382427,7.187663 8.375906,8.168549 1.06707,0.525047 1.166821,0.541604 3.208661,0.532584 1.998446,-0.0088 2.268886,-0.05363 5.232913,-0.866891 13.82724,-3.793867 21.005188,-4.298242 25.999021,-1.826882 3.439989,1.702389 5.370533,4.676461 6.222113,9.585404 0.33642,1.939275 0.32462,2.712675 -0.0706,4.62814 -0.60756,2.944429 -1.991191,5.078091 -3.662277,5.647488 -2.387205,0.813403 -4.593603,-0.232981 -4.593603,-2.178515 0,-0.915 0.30416,-1.749451 1.133879,-3.110747 0.923658,-1.515423 1.110337,-2.179494 1.017842,-3.620766 -0.154928,-2.414096 -1.821512,-4.455935 -4.759002,-5.830553 -1.081806,-0.506237 -2.600082,-0.980557 -3.151005,-0.984394 -0.240863,-0.0017 -0.181116,0.228069 0.372305,1.431642 1.420813,3.089961 1.905224,5.499301 1.518133,7.55081 -0.432775,2.293616 -1.81087,3.473463 -4.057104,3.473463 -1.853245,0 -2.854856,-0.628588 -3.158985,-1.982505 -0.179074,-0.797197 -0.163295,-0.903706 0.412187,-2.782078 0.221314,-0.722372 0.400727,-1.517826 0.398693,-1.767677 -0.0069,-0.844629 -0.645256,-1.874498 -2.080262,-3.355983 -1.135187,-1.171954 -1.47225,-1.432813 -1.638869,-1.268358 -0.167421,0.165245 -0.164929,0.290809 0.01234,0.622052 0.163091,0.304735 0.200178,0.947495 0.139579,2.418922 -0.06891,1.673258 -0.14551,2.115965 -0.464212,2.683019 -0.400195,0.71205 -1.388507,1.392204 -2.022971,1.392204 -1.061553,0 -1.995413,-0.932288 -2.61383,-2.609428 -0.170711,-0.462963 -0.335955,-0.874451 -0.367211,-0.914419 -0.106904,-0.136704 -1.265375,1.081863 -2.250057,2.366779 -1.82217,2.377754 -2.677746,4.330594 -2.376041,5.423276 0.08463,0.306507 0.688923,1.262026 1.342874,2.123376 0.839687,1.10599 1.381433,2.041973 1.843993,3.185897 0.521541,1.289781 1.479805,2.854611 4.7033,7.680411 6.32115,9.463209 6.687599,9.734039 17.185764,12.701426 1.970334,0.556931 3.719292,1.08585 3.886575,1.175377 0.43292,0.231692 1.468808,1.410667 1.796875,2.045079 0.153003,0.295875 0.61239,1.335645 1.02086,2.310599 0.81446,1.94398 1.34526,2.749128 2.14859,3.259064 0.47825,0.303583 0.68523,0.322448 2.21114,0.201546 2.53767,-0.201068 4.37775,-0.124611 6.09258,0.253146 6.84968,1.508908 11.13479,6.187581 12.41871,13.559283 0.54107,3.106653 0.49089,7.889076 -0.10882,10.369896 -0.51941,2.1487 -1.75868,3.73047 -3.43498,4.38436 -0.80228,0.31295 -1.31971,0.38783 -2.67792,0.38754 -2.72106,-5e-4 -3.86698,-0.69959 -5.27875,-3.21999 -0.75046,-1.33979 -0.88319,-1.62325 -2.50049,-5.33978 -1.14889,-2.640169 -2.19011,-4.797984 -2.31518,-4.797984 -0.0403,0 -0.20556,0.471194 -0.36715,1.047096 -0.40356,1.438283 -1.23632,2.240704 -3.45126,3.325548 -1.92274,0.94173 -2.57158,1.46988 -2.85288,2.32222 -0.29059,0.88051 -0.0927,1.62774 1.29145,4.87541 1.95981,4.59846 2.62749,7.85578 2.6493,12.92468 0.0137,3.1771 -0.14569,4.61365 -0.81589,7.35472 -0.4789,1.95866 -0.87021,2.77113 -1.67496,3.47771 -0.84359,0.74069 -1.42558,0.70901 -2.257463,-0.12287 l 7e-6,0 -8e-6,2e-5 z M 54.404193,49.075317 c 1.012084,-0.523697 1.96237,-1.560693 2.580144,-2.815569 0.676667,-1.374505 0.862854,-3.561592 0.417376,-4.902801 -0.604483,-1.819928 -2.248132,-3.031701 -3.883285,-2.862938 -1.919614,0.198121 -3.930308,1.633588 -4.727604,3.375113 -1.123968,2.455069 -0.744652,5.953732 0.756113,6.974072 0.910609,0.619106 1.271296,0.706652 2.703845,0.656271 1.077666,-0.0379 1.609347,-0.142623 2.153411,-0.424148 z"
     id="path2880"
     transform="scale(2.003777,2.003777)"
     sodipodi:nodetypes="csssssssssssssssssssssssssssssssssssssssssssssssssccccccssssssssscccssssssssscccsssssssssssssssssssssssssssssssssssssssssssssssssssssssssssssssssccccssssssc" />
  <path
     sodipodi:type="arc"
     style="fill:#333333"
     id="path3769"
     sodipodi:cx="21.252567"
     sodipodi:cy="62.212242"
     sodipodi:rx="3.2854209"
     sodipodi:ry="0.56468171"
     d="m 24.537988,62.212242 a 3.2854209,0.56468171 0 0 1 -0.611071,0.328 l -2.67435,-0.328 z"
     transform="matrix(13.660644,-2.2120657,3.2020812,19.774499,-425.54115,-1056.2117)"
     sodipodi:start="0"
     sodipodi:end="0.61978202" />
  <path
     sodipodi:type="arc"
     style="fill:#4d4d4d"
     id="path3771"
     sodipodi:cx="21.252567"
     sodipodi:cy="62.212242"
     sodipodi:rx="3.2854209"
     sodipodi:ry="0.56468171"
     d="m 17.996452,62.287496 a 3.2854209,0.56468171 0 0 1 0.724525,-0.435169 l 2.53159,0.359915 z"
     transform="matrix(13.660644,-2.2120657,3.2020812,19.774499,-425.54114,-1056.2117)"
     sodipodi:start="3.0079264"
     sodipodi:end="3.8326811" />
  <path
     sodipodi:type="arc"
     style="fill:#ff0000"
     id="path2959"
     sodipodi:cx="21.252567"
     sodipodi:cy="62.212242"
     sodipodi:rx="3.2854209"
     sodipodi:ry="0.56468171"
     d="m 24.537988,62.212242 a 3.2854209,0.56468171 0 1 1 -6.570842,0 3.2854209,0.56468171 0 1 1 6.570842,0 z"
     transform="matrix(2.7506728,-0.44541596,0.45069755,2.7832893,-22.481213,-36.669775)" />
  <path
     sodipodi:type="arc"
     style="fill:#000000"
     id="path2963"
     sodipodi:cx="-0.51334703"
     sodipodi:cy="68.321075"
     sodipodi:rx="0.41067761"
     sodipodi:ry="0.1026694"
     d="m -0.10266942,68.321075 a 0.41067761,0.1026694 0 1 1 -0.82135522,0 0.41067761,0.1026694 0 1 1 0.82135522,0 z"
     transform="matrix(3.6734505,-0.59484119,0.64059821,3.9560236,22.273701,-143.65469)" />
</svg>
